<svg width="310" height="91" viewBox="0 0 310 91" fill="none" xmlns="http://www.w3.org/2000/svg">
<path d="M0.25 57.375V54.3125C0.25 51.5625 1.5 49.2917 4 47.5L39.5625 22.3125C41.0208 21.3542 42.2917 21.1667 43.375 21.75C44.5 22.2917 45.0625 23.3333 45.0625 24.875V35.625C45.0625 38.7083 43.2292 41.5208 39.5625 44.0625L22.9375 55.8125L39.5625 67.625C43.2292 70.1667 45.0625 72.9792 45.0625 76.0625V86.8125C45.0625 88.3542 44.5 89.3958 43.375 89.9375C42.2917 90.4792 41.0208 90.2917 39.5625 89.375L4 64.125C1.5 62.375 0.25 60.125 0.25 57.375ZM51.8125 5.625C51.6042 5.125 51.5 4.5625 51.5 3.9375C51.5 3.27083 51.8542 2.52083 52.5625 1.6875C53.3125 0.8125 54.4167 0.375 55.875 0.375H69.5625C71.1875 0.375 72.6875 0.9375 74.0625 2.0625C75.4375 3.1875 76.4167 4.60417 77 6.3125L93.5 55.8125L108.75 6.3125C109.958 2.35417 112.438 0.375 116.188 0.375H127.688C131.438 0.375 133.917 2.35417 135.125 6.3125L150.375 55.8125L166.875 6.3125C167.458 4.60417 168.438 3.1875 169.812 2.0625C171.188 0.9375 172.688 0.375 174.312 0.375H188C189.417 0.375 190.479 0.8125 191.188 1.6875C191.938 2.52083 192.312 3.27083 192.312 3.9375C192.312 4.5625 192.229 5.125 192.062 5.625L164.188 83.625C162.646 87.875 159.646 90 155.188 90H146.125C141.5 90 138.521 87.875 137.188 83.625L121.938 35.5L106.688 83.625C105.312 87.875 102.333 90 97.75 90H88.625C84.2083 90 81.2292 87.875 79.6875 83.625L51.8125 5.625ZM196.688 90C194.646 90 193.625 89.0208 193.625 87.0625C193.625 86.1042 193.917 85.125 194.5 84.125L235.125 6.3125C237.083 2.35417 240.708 0.375 246 0.375H256.5C258.542 0.375 259.562 1.375 259.562 3.375C259.562 4.29167 259.25 5.27083 258.625 6.3125L218.062 84.125C216.104 88.0417 212.479 90 207.188 90H196.688ZM264.75 86.8125V76.0625C264.75 72.9792 266.583 70.1667 270.25 67.625L286.875 55.8125L270.25 44.0625C266.583 41.5208 264.75 38.7083 264.75 35.625V24.875C264.75 23.3333 265.312 22.2708 266.438 21.6875C266.854 21.4792 267.354 21.375 267.938 21.375C268.562 21.375 269.333 21.6875 270.25 22.3125L305.812 47.5C308.271 49.2917 309.521 51.5625 309.562 54.3125V57.375C309.562 60.125 308.312 62.375 305.812 64.125L270.25 89.375C269.333 89.9583 268.562 90.25 267.938 90.25C267.312 90.25 266.812 90.1458 266.438 89.9375C265.312 89.3958 264.75 88.3542 264.75 86.8125Z" fill="#D5FF40"/>
</svg>
